<svg width="141" height="36" viewBox="0 0 141 36" fill="none" xmlns="http://www.w3.org/2000/svg">
<path d="M0 0.704102H5.93808L16.6984 19.7674V0.704102H21.9759V28.0431H16.3128L5.2775 8.64488V28.0431H0V0.704102Z" fill="#EF4634"/>
<path d="M39.9294 8.23604C41.3273 8.86806 42.4825 9.86561 43.393 11.2269C44.2142 12.4279 44.7463 13.8216 44.9909 15.4061C45.1319 16.3353 45.189 17.6731 45.164 19.4179H30.5652C30.6473 21.4455 31.3454 22.868 32.6612 23.6836C33.4611 24.1914 34.4252 24.4435 35.5517 24.4435C36.7461 24.4435 37.7156 24.1338 38.4618 23.5162C38.8689 23.1831 39.2278 22.7185 39.5402 22.1243H44.8909C44.7498 23.3235 44.1018 24.5425 42.9484 25.7778C41.1524 27.7441 38.6386 28.7272 35.4071 28.7272C32.7398 28.7272 30.3849 27.8971 28.346 26.2405C26.3072 24.5821 25.2877 21.8848 25.2877 18.1467C25.2877 14.6445 26.2072 11.9597 28.0497 10.0907C29.8904 8.22164 32.2792 7.28711 35.2178 7.28711C36.9604 7.28891 38.5315 7.60582 39.9294 8.23604ZM32.0899 12.8024C31.349 13.5731 30.8848 14.6157 30.6938 15.9319H39.7241C39.6295 14.5292 39.1635 13.4633 38.3279 12.7376C37.4924 12.012 36.4569 11.6482 35.2196 11.6482C33.8717 11.6482 32.8291 12.0336 32.0899 12.8024Z" fill="#EF4634"/>
<path d="M64.6708 9.99733C66.3062 11.7403 67.1239 14.3008 67.1239 17.6752C67.1239 21.2369 66.3241 23.9504 64.7262 25.8177C63.1283 27.6849 61.0698 28.6176 58.5542 28.6176C56.9492 28.6176 55.6173 28.2161 54.5568 27.413C53.9766 26.9683 53.4088 26.3182 52.8536 25.4647V36.0002H47.6671V7.82757H52.6875V10.813C53.2553 9.9361 53.8587 9.24286 54.5014 8.73508C55.6726 7.83297 57.067 7.38281 58.6845 7.38281C61.0412 7.38281 63.0354 8.25432 64.6708 9.99733ZM60.6484 13.8003C59.9361 12.601 58.7809 12.0014 57.183 12.0014C55.2638 12.0014 53.9444 12.9107 53.2249 14.7276C52.8536 15.6927 52.6679 16.9153 52.6679 18.4009C52.6679 20.7507 53.2928 22.4001 54.5425 23.3526C55.2852 23.909 56.1654 24.1881 57.1813 24.1881C58.656 24.1881 59.779 23.6191 60.5538 22.4811C61.3286 21.3431 61.7161 19.8288 61.7161 17.9363C61.7178 16.377 61.3608 14.9995 60.6484 13.8003Z" fill="#EF4634"/>
<path d="M89.4676 9.23723C89.0373 7.36997 87.9893 6.06632 86.3236 5.32446C85.3916 4.91572 84.3561 4.71225 83.2153 4.71225C81.0336 4.71225 79.2393 5.54234 77.836 7.20252C76.4327 8.8627 75.7311 11.3584 75.7311 14.6895C75.7311 18.0459 76.4917 20.4227 78.011 21.8164C79.5303 23.2101 81.2603 23.9088 83.1974 23.9088C85.097 23.9088 86.6539 23.3596 87.8679 22.2594C89.082 21.1592 89.83 19.7187 90.1121 17.9361H83.8402V13.3733H95.1307V28.0448H91.3797L90.8102 24.6326C89.7193 25.9255 88.7374 26.8366 87.8679 27.366C86.3718 28.2897 84.5329 28.7506 82.3512 28.7506C78.759 28.7506 75.8168 27.4956 73.5244 24.9873C71.1338 22.4664 69.9376 19.0182 69.9376 14.6445C69.9376 10.2204 71.1445 6.67493 73.5601 4.0046C75.9757 1.33427 79.1697 0 83.1421 0C86.5878 0 89.3551 0.880508 91.4458 2.64332C93.5364 4.40614 94.7344 6.60291 95.0415 9.23723H89.4676Z" fill="#3560AD"/>
<path d="M116.832 25.5712C115.139 27.6779 112.572 28.7313 109.126 28.7313C105.68 28.7313 103.113 27.6779 101.421 25.5712C99.728 23.4644 98.8835 20.9291 98.8835 17.9635C98.8835 15.0483 99.7298 12.522 101.421 10.3847C103.111 8.24731 105.68 7.17773 109.126 7.17773C112.572 7.17773 115.139 8.24731 116.832 10.3847C118.524 12.522 119.37 15.0483 119.37 17.9635C119.37 20.9291 118.524 23.4644 116.832 25.5712ZM112.64 22.6487C113.461 21.5504 113.872 19.9874 113.872 17.9635C113.872 15.9378 113.461 14.3802 112.64 13.2873C111.818 12.1943 110.642 11.6487 109.108 11.6487C107.576 11.6487 106.396 12.1961 105.568 13.2873C104.741 14.3802 104.327 15.9378 104.327 17.9635C104.327 19.9892 104.741 21.5504 105.568 22.6487C106.396 23.7471 107.575 24.2963 109.108 24.2963C110.64 24.2981 111.818 23.7489 112.64 22.6487Z" fill="#3560AD"/>
<path d="M135.373 7.92285H141L133.762 28.1403H128.236L121.047 7.92285H126.931L131.106 22.8357L135.373 7.92285Z" fill="#3560AD"/>
</svg>
